<svg xmlns="http://www.w3.org/2000/svg" fill="none" stroke="#000" stroke-width="5" viewBox="0 0 480 600">
  <style>
    @media (prefers-color-scheme:dark){g{fill:#fff}.shield{fill:none;stroke:#fff}}
  </style>
  <path fill="#B42F2F" stroke="#FFD000" stroke-width="20" d="M10 10h460v350a1 1 0 01-460 0Z" class="shield"/>
  <g fill="#FFD000" clip-path="url(#c)">
    <path d="M299.7 310.2c14.1-16.7 57.8-86.3 57.8-114l-62.7-2.8c0 36.7-34.3 77.1-66.4 91.6-34.5 15.7-59.7 39.4-60.2 79.9-.4 44.3 30.5 83.2 72.3 109.1 31 19.2 57.5 50.5 94 57.5l23-50c-39.5-12-29-10.5-78.5-47-32.5-24-54.9-46.6-56-63-.9-14.5 20.4-25.3 31.7-30.6 16.7-7.7 32.9-16.4 45-30.7Z"/>
    <path d="M133.6 182.1c-4.9 55.6 18.3 107.7 47.6 129 3.9 2.8 10.4 6.5 18 10.7 23.6 13.3 76.8 45.1 35.8 73.2 16.5 18.5 24.5 23 41 37 60.5-53 23.7-116.4-37.7-153.3-4-2.4-8-4.8-11.8-7.2-29.8-18.5-28.8-53.3-28.2-72.2ZM149 543.5c52.5-26.5 67-58 87-71.5-17.5-14-26.5-21-42-38.5-29.5 18.5-19.5 30.5-70 60.1Z"/>
    <path d="M459 425c-227 153-254-4-438 0v164h438Z"/>
    <ellipse cx="140.1" cy="240.8" rx="40.3" ry="38.2"/>
    <ellipse cx="379.7" cy="228.3" rx="40.3" ry="38.2"/>
    <ellipse cx="335.8" cy="249.2" rx="40.3" ry="38.2"/>
    <ellipse cx="106.1" cy="177.4" rx="46.1" ry="45.5"/>
    <ellipse cx="97.3" cy="223.2" rx="40.3" ry="38.2"/>
    <ellipse cx="201.1" cy="188.9" rx="80" ry="64.3"/>
    <ellipse cx="269.8" cy="136.7" rx="80" ry="64.3"/>
    <ellipse cx="365.7" cy="185.3" rx="46.1" ry="45.5"/>
    <ellipse cx="353.3" cy="145.3" rx="46.1" ry="45.5"/>
    <ellipse cx="186.8" cy="129.3" rx="80" ry="64.3"/>
    <ellipse cx="269.8" cy="188.9" rx="80" ry="64.3"/>
    <g stroke="none">
      <ellipse cx="244.5" cy="168" rx="106.5" ry="71"/>
      <ellipse cx="347.5" cy="209" rx="57.5" ry="57"/>
      <ellipse cx="134" cy="194.5" rx="60" ry="63.5"/>
    </g>
  </g>
  <path d="M22.5 22.5h435V360a1 1 0 01-435 0Z"/>
  <defs>
    <clipPath id="c">
      <path d="M25 25h430v335a1 1 0 01-430 0Z"/>
    </clipPath>
  </defs>
</svg>